HIERARCHY
ROOT hip
{
  OFFSET 0 0 0
  CHANNELS 6 Xposition Yposition Zposition Zrotation Yrotation Xrotation
  JOINT abdomen
  {
    OFFSET 0 20.6881 -0.73152
    CHANNELS 3 Zrotation Xrotation Yrotation
    JOINT chest
    {
      OFFSET 0 11.7043 -0.48768
      CHANNELS 3 Zrotation Xrotation Yrotation
      JOINT neck
      {
        OFFSET 0 22.1894 -2.19456
        CHANNELS 3 Zrotation Xrotation Yrotation
        JOINT head
        {
          OFFSET -0.24384 7.07133 1.2192
          CHANNELS 3 Zrotation Xrotation Yrotation
          JOINT leftEye
          {
            OFFSET 4.14528 8.04674 8.04672
            CHANNELS 3 Zrotation Xrotation Yrotation
            End Site
            {
              OFFSET 1 0 0
            }
          }
          JOINT rightEye
          {
            OFFSET -3.6576 8.04674 8.04672
            CHANNELS 3 Zrotation Xrotation Yrotation
            End Site
            {
              OFFSET 1 0 0
            }
          }
        }
      }
      JOINT rCollar
      {
        OFFSET -2.68224 19.2634 -4.8768
        CHANNELS 3 Zrotation Xrotation Yrotation
        JOINT rShldr
        {
          OFFSET -8.77824 -1.95073 1.46304
          CHANNELS 3 Zrotation Xrotation Yrotation
          JOINT rForeArm
          {
            OFFSET -28.1742 -1.7115 0.48768
            CHANNELS 3 Zrotation Xrotation Yrotation
            JOINT rHand
            {
              OFFSET -22.5879 0.773209 7.07136
              CHANNELS 3 Zrotation Xrotation Yrotation
              JOINT rThumb1
              {
                OFFSET -1.2192 -0.487915 3.41376
                CHANNELS 3 Zrotation Xrotation Yrotation
                JOINT rThumb2
                {
                  OFFSET -3.37035 -0.52449 3.41376
                  CHANNELS 3 Zrotation Xrotation Yrotation
                  End Site
                  {
                    OFFSET -1.78271 -1.18214 1.43049
                  }
                }
              }
              JOINT rIndex1
              {
                OFFSET -7.75947 0.938293 5.60832
                CHANNELS 3 Zrotation Xrotation Yrotation
                JOINT rIndex2
                {
                  OFFSET -2.54057 -0.884171 1.56538
                  CHANNELS 3 Zrotation Xrotation Yrotation
                  End Site
                  {
                    OFFSET -1.62519 -0.234802 1.16502
                  }
                }
              }
              JOINT rMid1
              {
                OFFSET -8.24714 1.18213 3.41376
                CHANNELS 3 Zrotation Xrotation Yrotation
                JOINT rMid2
                {
                  OFFSET -3.10165 -0.590103 1.0647
                  CHANNELS 3 Zrotation Xrotation Yrotation
                  End Site
                  {
                    OFFSET -2.48547 -0.328903 0.83742
                  }
                }
              }
              JOINT rRing1
              {
                OFFSET -8.82822 0.546677 1.51678
                CHANNELS 3 Zrotation Xrotation Yrotation
                JOINT rRing2
                {
                  OFFSET -2.60934 -0.819778 -0.0198488
                  CHANNELS 3 Zrotation Xrotation Yrotation
                  End Site
                  {
                    OFFSET -2.33842 -0.294052 0.168128
                  }
                }
              }
              JOINT rPinky1
              {
                OFFSET -8.27202 -0.0477905 -0.4584
                CHANNELS 3 Zrotation Xrotation Yrotation
                JOINT rPinky2
                {
                  OFFSET -1.82734 -0.647385 -0.700984
                  CHANNELS 3 Zrotation Xrotation Yrotation
                  End Site
                  {
                    OFFSET -1.69225 -0.51767 -0.607171
                  }
                }
              }
            }
          }
        }
      }
      JOINT lCollar
      {
        OFFSET 2.68224 19.2634 -4.8768
        CHANNELS 3 Zrotation Xrotation Yrotation
        JOINT lShldr
        {
          OFFSET 8.77824 -1.95073 1.46304
          CHANNELS 3 Zrotation Xrotation Yrotation
          JOINT lForeArm
          {
            OFFSET 28.1742 -1.7115 0.48768
            CHANNELS 3 Zrotation Xrotation Yrotation
            JOINT lHand
            {
              OFFSET 22.5879 0.773209 7.07136
              CHANNELS 3 Zrotation Xrotation Yrotation
              JOINT lThumb1
              {
                OFFSET 1.2192 -0.487915 3.41376
                CHANNELS 3 Zrotation Xrotation Yrotation
                JOINT lThumb2
                {
                  OFFSET 3.37035 -0.52449 3.41376
                  CHANNELS 3 Zrotation Xrotation Yrotation
                  End Site
                  {
                    OFFSET 1.78271 -1.18214 1.43049
                  }
                }
              }
              JOINT lIndex1
              {
                OFFSET 7.75947 0.938293 5.60832
                CHANNELS 3 Zrotation Xrotation Yrotation
                JOINT lIndex2
                {
                  OFFSET 2.54057 -0.884171 1.56538
                  CHANNELS 3 Zrotation Xrotation Yrotation
                  End Site
                  {
                    OFFSET 1.62519 -0.234802 1.16502
                  }
                }
              }
              JOINT lMid1
              {
                OFFSET 8.24714 1.18213 3.41376
                CHANNELS 3 Zrotation Xrotation Yrotation
                JOINT lMid2
                {
                  OFFSET 3.10165 -0.590103 1.0647
                  CHANNELS 3 Zrotation Xrotation Yrotation
                  End Site
                  {
                    OFFSET 2.48547 -0.328903 0.83742
                  }
                }
              }
              JOINT lRing1
              {
                OFFSET 8.82822 0.546677 1.51678
                CHANNELS 3 Zrotation Xrotation Yrotation
                JOINT lRing2
                {
                  OFFSET 2.60934 -0.819778 -0.0198488
                  CHANNELS 3 Zrotation Xrotation Yrotation
                  End Site
                  {
                    OFFSET 2.33842 -0.294052 0.168128
                  }
                }
              }
              JOINT lPinky1
              {
                OFFSET 8.27202 -0.0477905 -0.4584
                CHANNELS 3 Zrotation Xrotation Yrotation
                JOINT lPinky2
                {
                  OFFSET 1.82734 -0.647385 -0.700984
                  CHANNELS 3 Zrotation Xrotation Yrotation
                  End Site
                  {
                    OFFSET 1.69225 -0.51767 -0.607171
                  }
                }
              }
            }
          }
        }
      }
    }
  }
  JOINT rButtock
  {
    OFFSET -8.77824 4.35084 1.2192
    CHANNELS 3 Zrotation Xrotation Yrotation
    JOINT rThigh
    {
      OFFSET 0 -1.70687 -2.19456
      CHANNELS 3 Zrotation Xrotation Yrotation
      JOINT rShin
      {
        OFFSET 0 -36.8199 0.73152
        CHANNELS 3 Zrotation Xrotation Yrotation
        JOINT rFoot
        {
          OFFSET 0.73152 -45.1104 -5.12064
          CHANNELS 3 Zrotation Xrotation Yrotation
          End Site
          {
            OFFSET -1.1221 -3.69964 12.103
          }
        }
      }
    }
  }
  JOINT lButtock
  {
    OFFSET 8.77824 4.35084 1.2192
    CHANNELS 3 Zrotation Xrotation Yrotation
    JOINT lThigh
    {
      OFFSET 0 -1.70687 -2.19456
      CHANNELS 3 Zrotation Xrotation Yrotation
      JOINT lShin
      {
        OFFSET 0 -36.8199 0.73152
        CHANNELS 3 Zrotation Xrotation Yrotation
        JOINT lFoot
        {
          OFFSET -0.73152 -45.1104 -5.12064
          CHANNELS 3 Zrotation Xrotation Yrotation
          End Site
          {
            OFFSET 1.1221 -3.69964 12.103
          }
        }
      }
    }
  }
}
MOTION
Frames:	6
Frame Time:	0.00833333
25.4468 63.8536 -86.9259 0.0 0.0 0.0 1.08603 -0.00409021 0.0298986 0.299439 -0.00345902 0.051873 -8.23043e-15 1.59028e-15 2.85753e-16 -2.45406e-14 9.54166e-15 8.63471e-16 -0.0 0.0 0.0 -0.0 0.0 0.0 -4.02688e-15 -6.21202e-18 2.98177e-16 -8.51224e-14 -6.70898e-16 3.57812e-15 -1.4798e-12 4.38718e-13 8.26944e-14 -1.69642e-11 -4.56459e-13 5.40694e-13 -4.00162e-11 -2.95273e-14 1.37718e-12 -6.91194e-11 -5.08889e-14 2.36633e-12 -4.00106e-11 -2.74323e-14 1.3581e-12 7.73091 5.47488 0.417314 -4.00181e-11 -3.03147e-14 1.374e-12 2.90554 0.965183 0.102902 -4.00089e-11 -2.9122e-14 1.37082e-12 10.2786 0.731801 0.0259123 -4.00203e-11 -2.66371e-14 1.37718e-12 2.22167 -0.733487 -0.20892 -4.32235e-15 -6.40615e-18 0.0 -8.74757e-14 -7.70291e-16 1.59028e-15 -1.48651e-12 -4.46669e-13 4.77083e-14 -1.69786e-11 4.2038e-13 5.88403e-13 -4.00514e-11 -4.94787e-14 1.36446e-12 -6.9152e-11 -8.26944e-14 2.36474e-12 -4.00555e-11 -4.92986e-14 1.374e-12 -7.73091 5.47488 -0.417314 -4.0051e-11 -5.02925e-14 1.36128e-12 -2.90554 0.965183 -0.102902 -4.00578e-11 -4.91992e-14 1.37082e-12 -10.2786 0.731801 -0.0259123 -4.0046e-11 -4.6118e-14 1.36446e-12 -2.22167 -0.733487 0.20892 -2.03217e-16 0.0 -3.88251e-19 1.33901 -5.65662 -0.117806 0.000446497 4.68985 0.0312859 -0.524973 0.964956 0.0795909 2.03217e-16 0.0 3.88251e-19 0.3138 -1.92005 0.0118589 0.00934591 -2.07854 0.0772348 0.509517 3.99665 -0.139908
21.8414 61.5546 -87.5606 -7.0437 -10.7374 2.3016 3.86072 9.69152 -0.630993 0.567246 -2.25328 0.116674 -2.03913 -0.888062 2.47881 -3.58131 -0.463918 5.47468 -0.0 0.0 0.0 -0.0 0.0 0.0 -3.73762e-14 3.54789e-15 9.22202e-14 19.1595 8.53076 1.96683 -16.0785 -13.4282 14.8015 0.00397323 -1.40904 -0.197818 8.75963e-11 -1.78747e-10 -3.88712e-10 1.52544e-10 -3.10983e-10 -6.70557e-10 8.76006e-11 -1.78746e-10 -3.88728e-10 7.73091 5.47488 0.417314 8.7595e-11 -1.7875e-10 -3.88716e-10 2.90554 0.965183 0.102902 8.76039e-11 -1.78749e-10 -3.88717e-10 10.2786 0.731801 0.0259123 8.75916e-11 -1.78746e-10 -3.88709e-10 2.22167 -0.733487 -0.20892 -3.76806e-14 3.54903e-15 9.19061e-14 -21.6668 2.5166 0.105398 17.9836 -15.5446 -15.08 -0.158622 8.86916 -1.19352 -5.57411e-10 -1.97986e-09 -1.78043e-10 -9.65664e-10 -3.37809e-09 -2.93427e-10 -5.57415e-10 -1.97986e-09 -1.78037e-10 -7.73091 5.47488 -0.417314 -5.57411e-10 -1.97986e-09 -1.78047e-10 -2.90554 0.965183 -0.102902 -5.57416e-10 -1.97986e-09 -1.7804e-10 -10.2786 0.731801 -0.0259123 -5.57406e-10 -1.97986e-09 -1.7805e-10 -2.22167 -0.733487 0.20892 -2.03217e-16 0.0 -3.88251e-19 -2.19736 -18.0189 -0.779829 0.321079 28.1174 0.313907 -0.490481 -1.25317 -2.39238 2.03217e-16 0.0 3.88251e-19 2.3616 -15.6957 1.68075 -0.138524 19.8712 -0.225405 0.182581 -2.07028 -0.327266
22.241 61.6565 -85.3947 -6.5568 -12.1106 1.9426 7.05276 19.8806 -1.37824 0.87121 -4.62608 0.190619 -4.12371 -1.82313 5.07592 -7.21304 -0.92143 11.2208 -0.0 0.0 0.0 -0.0 0.0 0.0 -7.59003e-14 5.75983e-15 1.9562e-13 38.7428 17.5886 4.18785 -25.3188 -24.6294 32.9331 -0.00242805 -2.87847 -0.404522 2.65019e-10 -4.90294e-10 -9.07671e-10 4.60924e-10 -8.52487e-10 -1.56594e-09 2.65022e-10 -4.90294e-10 -9.07684e-10 7.73091 5.47488 0.417314 2.65019e-10 -4.90298e-10 -9.07676e-10 2.90554 0.965183 0.102902 2.65027e-10 -4.90297e-10 -9.07674e-10 10.2786 0.731801 0.0259123 2.65014e-10 -4.90294e-10 -9.07665e-10 2.22167 -0.733487 -0.20892 -7.62185e-14 5.76316e-15 1.95287e-13 -44.5773 5.22689 0.175418 27.5704 -28.2958 -34.4396 0.0957228 18.2926 -2.56282 -1.22779e-09 -4.32635e-09 -3.63987e-10 -2.12647e-09 -7.37793e-09 -5.96951e-10 -1.22779e-09 -4.32635e-09 -3.63985e-10 -7.73091 5.47488 -0.417314 -1.22779e-09 -4.32635e-09 -3.63991e-10 -2.90554 0.965183 -0.102902 -1.22779e-09 -4.32635e-09 -3.63988e-10 -10.2786 0.731801 -0.0259123 -1.22779e-09 -4.32635e-09 -3.64001e-10 -2.22167 -0.733487 0.20892 -2.03217e-16 0.0 -3.88251e-19 -6.31971 -30.9287 -1.67294 0.260762 53.0594 0.891836 -0.66489 -3.59915 -5.04767 2.03217e-16 0.0 3.88251e-19 5.54131 -30.3015 3.77662 0.0331064 42.9779 -0.707222 -0.195725 -8.52409 -0.476127
22.5539 61.5663 -83.1375 -5.9905 -13.6639 1.4872 10.1623 29.0665 -2.20337 1.11823 -6.75286 0.247724 -5.88739 -2.64424 7.4435 -10.482 -1.34107 16.4281 -0.0 0.0 0.0 -0.0 0.0 0.0 -1.04075e-13 1.06561e-14 2.76064e-13 55.5645 25.4649 6.46563 -27.4839 -28.9736 51.44 -0.0173366 -4.22693 -0.594894 3.42821e-10 -5.36183e-10 -1.16889e-09 5.95872e-10 -9.32846e-10 -2.0164e-09 3.42823e-10 -5.36183e-10 -1.1689e-09 7.73091 5.47488 0.417314 3.42821e-10 -5.36188e-10 -1.1689e-09 2.90554 0.965183 0.102902 3.42829e-10 -5.36188e-10 -1.16889e-09 10.2786 0.731801 0.0259123 3.42815e-10 -5.36183e-10 -1.16888e-09 2.22167 -0.733487 -0.20892 -1.04397e-13 1.06599e-14 2.75718e-13 -65.0284 7.5497 0.318652 28.7125 -32.7123 -54.9685 0.742908 26.5585 -3.95572 -1.59213e-09 -5.93947e-09 -5.36857e-10 -2.75869e-09 -1.01341e-08 -8.8501e-10 -1.59213e-09 -5.93948e-09 -5.36859e-10 -7.73091 5.47488 -0.417314 -1.59213e-09 -5.93948e-09 -5.36863e-10 -2.90554 0.965183 -0.102902 -1.59213e-09 -5.93948e-09 -5.36862e-10 -10.2786 0.731801 -0.0259123 -1.59212e-09 -5.93948e-09 -5.36879e-10 -2.22167 -0.733487 0.20892 -2.03217e-16 0.0 -3.88251e-19 -10.4083 -42.7162 -2.70934 -1.45827 74.9545 2.96063 -0.996232 -5.64597 -7.37052 2.03217e-16 0.0 3.88251e-19 9.62532 -43.0749 6.61979 0.945115 63.76 -1.78775 -0.594009 -14.2032 -0.724158
22.8943 61.3947 -80.8899 -5.3301 -15.109 1.1951 12.5552 35.7575 -3.0126 1.21015 -8.26466 0.261213 -7.00797 -3.19863 9.23061 -13.0064 -1.70756 20.2854 -0.0 0.0 0.0 -0.0 0.0 0.0 -1.06376e-13 2.22631e-14 2.99121e-13 66.9086 30.5083 8.33035 -27.4119 -27.8261 63.7877 -0.0342247 -5.27313 -0.74321 1.7157e-10 8.20734e-11 -7.85762e-10 2.9724e-10 1.39658e-10 -1.35456e-09 1.71571e-10 8.20738e-11 -7.85772e-10 7.73091 5.47488 0.417314 1.7157e-10 8.20682e-11 -7.85769e-10 2.90554 0.965183 0.102902 1.71578e-10 8.20687e-11 -7.85762e-10 10.2786 0.731801 0.0259123 1.71564e-10 8.2073e-11 -7.85753e-10 2.22167 -0.733487 -0.20892 -1.06678e-13 2.22631e-14 2.98773e-13 -79.3265 8.90363 0.64438 28.0238 -30.7558 -68.4564 1.44338 31.9793 -5.03412 -1.19137e-09 -5.7192e-09 -6.77045e-10 -2.06941e-09 -9.78118e-09 -1.13441e-09 -1.19137e-09 -5.71921e-09 -6.77048e-10 -7.73091 5.47488 -0.417314 -1.19137e-09 -5.71921e-09 -6.77051e-10 -2.90554 0.965183 -0.102902 -1.19137e-09 -5.71921e-09 -6.77052e-10 -10.2786 0.731801 -0.0259123 -1.19136e-09 -5.71921e-09 -6.7707e-10 -2.22167 -0.733487 0.20892 -2.03217e-16 0.0 -3.88251e-19 -13.4865 -51.7277 -3.55344 -51.478 88.8331 53.1194 -1.29677 -6.99116 -8.82507 2.03217e-16 0.0 3.88251e-19 13.7323 -51.3911 10.0021 4.12516 78.7255 -5.02869 -1.00952 -17.9449 -1.21041
23.137 61.3224 -78.6631 -5.0697 -16.7118 1.0523 13.6155 38.9569 -3.61333 1.09308 -8.91156 0.210138 -7.24484 -3.38128 10.2321 -14.6649 -2.0956 22.2861 -0.0 0.0 0.0 -0.0 0.0 0.0 -6.89921e-14 4.65467e-14 2.31102e-13 71.3455 31.6478 9.22848 -27.3583 -26.233 67.4863 -0.0451993 -5.87137 -0.828288 -4.90217e-10 2.07793e-09 8.43716e-10 -8.55606e-10 3.60326e-09 1.45901e-09 -4.90217e-10 2.07793e-09 8.43702e-10 7.73091 5.47488 0.417314 -4.90217e-10 2.07792e-09 8.43708e-10 2.90554 0.965183 0.102902 -4.90211e-10 2.07792e-09 8.43714e-10 10.2786 0.731801 0.0259123 -4.90223e-10 2.07793e-09 8.43723e-10 2.22167 -0.733487 -0.20892 -6.92333e-14 4.65339e-14 2.30769e-13 -85.0347 8.82521 1.29922 27.9383 -28.8061 -72.6773 1.70081 33.42 -5.36054 6.41717e-10 -2.24387e-09 -7.99179e-10 1.093e-09 -3.91323e-09 -1.38536e-09 6.41714e-10 -2.24387e-09 -7.99182e-10 -7.73091 5.47488 -0.417314 6.41717e-10 -2.24387e-09 -7.99187e-10 -2.90554 0.965183 -0.102902 6.41715e-10 -2.24387e-09 -7.99187e-10 -10.2786 0.731801 -0.0259123 6.41721e-10 -2.24387e-09 -7.99205e-10 -2.22167 -0.733487 0.20892 -2.03217e-16 0.0 -3.88251e-19 -14.459 -57.122 -3.53686 -160.626 86.6841 162.196 -1.41062 -7.54234 -9.09717 2.03217e-16 0.0 3.88251e-19 15.7651 -53.5872 12.4616 12.8453 85.5309 -13.7466 -1.38372 -19.2627 -1.89336
